# xmcd
#
# Track frame offsets: 
#        150
#        26587
#        43902
#        57407
#        79265
#        102432
#        116730
#        136425
#
# Disc length: 2052 seconds
#
# Revision: 0
# Processed by: cddbd v1.4PL0 Copyright (c) Steve Scherf et al.
# Submitted via: ExactAudioCopy v0.90b4
#
DISCID=71080208
DTITLE=Bassgewitter - Bassgewitter
DYEAR=1995
DGENRE=Blues
TTITLE0=Pudle
TTITLE1=Bassmaniac
TTITLE2=Four Miles High
TTITLE3=Moody Piano Blues
TTITLE4=Teentown
TTITLE5=Dual
TTITLE6=Pudle (Bassic Mix)
TTITLE7=Dual (Techno Mix)
EXTD=
EXTT0=
EXTT1=
EXTT2=
EXTT3=
EXTT4=
EXTT5=
EXTT6=
EXTT7=
PLAYORDER=
